# xmcd
#
# Track frame offsets: 
#        150
#        15850
#        29576
#        50630
#        68937
#        85236
#        103209
#        120724
#        140683
#        162074
#        180302
#        197231
#        215549
#        228673
#        251583
#        270855
#        291132
#        306003
#        333641
#        352702
#
# Disc length: 4708 seconds
#
# Revision: 1
# Processed by: cddbd v1.5.2PL0 Copyright (c) Steve Scherf et al.
# Submitted via: ExactAudioCopy v1.0b3
#
DISCID=21126214
DTITLE=Various Artist - Zeichen der Zeit
DYEAR=2004
DGENRE=Pop
TTITLE0=Zeichen der Zeit - Zeichen der Zeit
TTITLE1=Yvonne Catterfeld - Der Schlüssel
TTITLE2=Beatbetrieb - Die neue Zeitrechnung
TTITLE3=Judy Bailey - Riding Round The Sun
TTITLE4=Ben - Lass mich nicht zweifeln
TTITLE5=Patrick Nuo - Underwater
TTITLE6=Sarah Brendel - Turn
TTITLE7=Paddy Kelly - Pray, Pray, Pray
TTITLE8=Allee der Kosmonauten - Wohin
TTITLE9=Xavier Naidoo - Alle Zeichen
TTITLE10=W4C Feat. Rolf Stahlhofen - Apokalypse jetzt
TTITLE11=Silvia Dias - Dass Du kein Zufall bist
TTITLE12=Jazzkantine - Emonition
TTITLE13=Dino Merlin Feat. Edo Zanki - Verletzt
TTITLE14=Higheads Feat. Cappuccino - Ich schreib mir die Bibel
TTITLE15=Yvonne Betz - Salvation
TTITLE16=The Flames - St. Antonio
TTITLE17=Zeichen der Zeit - Du bist nicht allein
TTITLE18=Daten0
TTITLE19=Daten1
EXTD=
EXTT0=
EXTT1=
EXTT2=
EXTT3=
EXTT4=
EXTT5=
EXTT6=
EXTT7=
EXTT8=
EXTT9=
EXTT10=
EXTT11=
EXTT12=
EXTT13=
EXTT14=
EXTT15=
EXTT16=
EXTT17=
EXTT18=
EXTT19=
PLAYORDER=
